<svg width="71" height="68" viewBox="0 0 71 68" fill="none" xmlns="http://www.w3.org/2000/svg">
<ellipse cx="35.5" cy="34" rx="35.5" ry="34" fill="#FFB823"/>
<path d="M36 34C33.8 34 31.9167 33.2167 30.35 31.65C28.7833 30.0833 28 28.2 28 26C28 23.8 28.7833 21.9167 30.35 20.35C31.9167 18.7833 33.8 18 36 18C38.2 18 40.0833 18.7833 41.65 20.35C43.2167 21.9167 44 23.8 44 26C44 28.2 43.2167 30.0833 41.65 31.65C40.0833 33.2167 38.2 34 36 34ZM20 50V44.4C20 43.2667 20.292 42.2253 20.876 41.276C21.46 40.3267 22.2347 39.6013 23.2 39.1C25.2667 38.0667 27.3667 37.292 29.5 36.776C31.6333 36.26 33.8 36.0013 36 36C38.2 35.9987 40.3667 36.2573 42.5 36.776C44.6333 37.2947 46.7333 38.0693 48.8 39.1C49.7667 39.6 50.542 40.3253 51.126 41.276C51.71 42.2267 52.0013 43.268 52 44.4V50H20Z" fill="black"/>
</svg>
