<svg width="29" height="30" viewBox="0 0 29 30" fill="none" xmlns="http://www.w3.org/2000/svg">
<path d="M14.5 14.3958C13.6988 14.3958 12.9304 14.0776 12.3639 13.5111C11.7974 12.9445 11.4791 12.1762 11.4791 11.375C11.4791 10.5738 11.7974 9.80546 12.3639 9.23895C12.9304 8.67243 13.6988 8.35417 14.5 8.35417C15.3011 8.35417 16.0695 8.67243 16.636 9.23895C17.2025 9.80546 17.5208 10.5738 17.5208 11.375C17.5208 11.7717 17.4427 12.1645 17.2908 12.531C17.139 12.8975 16.9165 13.2305 16.636 13.5111C16.3555 13.7916 16.0225 14.0141 15.656 14.1659C15.2895 14.3177 14.8967 14.3958 14.5 14.3958ZM14.5 2.91667C12.2567 2.91667 10.1053 3.80781 8.51901 5.39406C6.93277 6.9803 6.04163 9.13171 6.04163 11.375C6.04163 17.7187 14.5 27.0833 14.5 27.0833C14.5 27.0833 22.9583 17.7187 22.9583 11.375C22.9583 9.13171 22.0671 6.9803 20.4809 5.39406C18.8947 3.80781 16.7432 2.91667 14.5 2.91667Z" fill="#2D4F2B"/>
</svg>
