<svg width="243" height="142" viewBox="0 0 243 142" fill="none" xmlns="http://www.w3.org/2000/svg">
<circle cx="191.071" cy="74.5" r="51.9292" fill="#FFB823"/>
<path d="M0.48 114V103.824C2.272 103.888 3.776 103.792 4.992 103.536C6.272 103.216 7.328 102.544 8.16 101.52C9.056 100.496 9.792 98.928 10.368 96.816C10.944 94.64 11.424 91.728 11.808 88.08C12.192 84.432 12.608 79.792 13.056 74.16L15.552 36.24H53.376V114H39.264V46.896H28.128L26.4 75.888C26.016 81.584 25.568 86.608 25.056 90.96C24.608 95.312 23.872 99.024 22.848 102.096C21.888 105.104 20.512 107.536 18.72 109.392C16.928 111.248 14.56 112.56 11.616 113.328C8.672 114.032 4.96 114.256 0.48 114ZM65.3873 114V36.24H98.0273V46.224H79.5953V68.592H94.0913V78.48H79.5953V104.208H98.2193V114H65.3873ZM114.226 114V46.704H101.842V36.24H140.626V46.704H128.434V114H114.226Z" fill="black"/>
</svg>
